Coordinates
version=1
nRows=17
nColumns=40
inDegrees=yes

Units are S.I. units (second, meters, Newtons, ...)
Angles are in degrees.

endheader
time	pelvis_tilt	pelvis_list	pelvis_rotation	pelvis_tx	pelvis_ty	pelvis_tz	hip_flexion_r	hip_adduction_r	hip_rotation_r	knee_angle_r	knee_angle_r_beta	ankle_angle_r	subtalar_angle_r	mtp_angle_r	hip_flexion_l	hip_adduction_l	hip_rotation_l	knee_angle_l	knee_angle_l_beta	ankle_angle_l	subtalar_angle_l	mtp_angle_l	lumbar_extension	lumbar_bending	lumbar_rotation	arm_flex_r	arm_add_r	arm_rot_r	elbow_flex_r	pro_sup_r	wrist_flex_r	wrist_dev_r	arm_flex_l	arm_add_l	arm_rot_l	elbow_flex_l	pro_sup_l	wrist_flex_l	wrist_dev_l
     55.78250000	     -2.49524890	     -6.95045964	      3.72661363	      1.11657658	      0.93379152	      0.53213266	      4.61312888	      6.79035839	    -18.58225110	      9.00060648	      9.00060648	      9.22055178	      5.88352846	     -5.87144553	     36.56434366	    -14.21268634	      2.74375884	     55.31603378	     55.31603378	      5.57339118	    -18.04782986	     12.02567843	     -9.83978057	      7.62772330	      5.13662002	     21.60878095	    -15.33751701	    -10.32078828	     48.27725341	     45.97111400	      0.00000000	      0.00000000	      5.51707290	     -6.10375975	      0.52246563	     30.64893316	     46.15771637	      0.00000000	      0.00000000
     55.79385714	     -2.62025680	     -6.91019381	      3.91644697	      1.11490068	      0.93323866	      0.53216789	      4.07501818	      6.83983954	    -18.55679454	      8.71152356	      8.71152356	      9.60322141	      5.92325808	     -5.95660189	     36.98613802	    -13.80261917	      2.61888166	     51.88236999	     51.88236999	      5.52484039	    -17.79222351	     12.32465523	     -9.86020152	      7.54955775	      4.88188860	     23.96715465	    -15.35877468	    -10.39066032	     50.17207125	     45.91407151	      0.00000000	      0.00000000	      4.07121363	     -6.07667377	      0.76046132	     29.36328192	     46.09400554	      0.00000000	      0.00000000
     55.80521429	     -2.77543544	     -6.97784558	      4.11628460	      1.11335493	      0.93244295	      0.53208686	      3.52967185	      7.00185023	    -18.67308928	      8.35235045	      8.35235045	      9.96399935	      6.15069077	     -6.03964859	     37.32783338	    -13.46646627	      2.58794018	     48.27322311	     48.27322311	      5.46251237	    -17.38627195	     12.31447840	     -9.84076860	      7.62095341	      4.52537972	     26.20050054	    -15.33181116	    -10.28527681	     52.70293205	     45.82479757	      0.00000000	      0.00000000	      2.70286313	     -6.00822826	      1.10968711	     27.64343666	     46.01362387	      0.00000000	      0.00000000
     55.81657143	     -2.99396193	     -7.13941969	      4.32420713	      1.11190065	      0.93143740	      0.53186905	      3.04658675	      7.23130128	    -19.03113893	      7.98500112	      7.98500112	     10.34103604	      6.75412351	     -6.07028278	     37.57474088	    -13.23312198	      2.51227683	     44.41725025	     44.41725025	      5.01315876	    -16.82671375	     11.05337655	     -9.73012087	      7.81311552	      4.84618826	     27.34164012	    -16.11336928	     -9.73473416	     57.08678822	     45.64175024	      0.00000000	      0.00000000	      1.97123751	     -5.70627541	      1.89913055	     25.11028541	     45.86481172	      0.00000000	      0.00000000
     55.82792857	     -3.15296176	     -7.07298732	      4.39259439	      1.11046966	      0.93068299	      0.53162770	      2.52995027	      7.21961418	    -18.89338467	      7.72331816	      7.72331816	     10.73402900	      6.89908827	     -6.14968287	     37.50905686	    -12.84691946	      2.18400227	     40.43119543	     40.43119543	      4.99057422	    -15.83434226	     11.33722510	     -9.73630615	      7.77847014	      4.93659898	     29.49207434	    -16.18991705	     -9.83081991	     58.97682638	     45.58876079	      0.00000000	      0.00000000	      0.56263544	     -5.73797746	      2.06291117	     24.21232538	     45.80981293	      0.00000000	      0.00000000
     55.83928571	     -3.48738572	     -7.37304695	      4.47587761	      1.10912700	      0.92929693	      0.53143622	      2.26571206	      7.58598607	    -18.93310954	      7.52912340	      7.52912340	     11.08077793	      7.02223617	     -6.27926872	     37.72995088	    -12.75143298	      2.18986278	     36.65133332	     36.65133332	      5.22346221	    -14.60698922	     11.64768116	     -9.38252518	      8.03651087	      5.25383505	     31.66202096	    -16.69803490	    -10.00137709	     60.42541294	     45.55582616	      0.00000000	      0.00000000	     -0.80086869	     -5.57709123	      2.14124211	     23.57880326	     45.77058793	      0.00000000	      0.00000000
     55.85064286	     -3.54287519	     -7.30760986	      4.57865544	      1.10829158	      0.92850538	      0.53092573	      1.39381126	      7.60302927	    -19.23404582	      6.91324000	      6.91324000	     11.61045698	      8.00791391	     -5.78184214	     37.18214918	    -12.37804097	      1.72961840	     32.46698628	     32.46698628	      4.57674186	    -13.34450340	      9.67580393	     -9.57265261	      7.98340758	      5.33300183	     32.28649211	    -16.85084218	     -9.89518136	     67.10192230	     45.33383867	      0.00000000	      0.00000000	     -1.87752792	     -5.67882742	      3.81314192	     22.03819046	     45.42692437	      0.00000000	      0.00000000
     55.86200000	     -3.76465528	     -7.36243386	      4.60584731	      1.10740049	      0.92733622	      0.53042147	      0.84728374	      7.71800147	    -19.21717035	      6.52435223	      6.52435223	     11.95340368	      8.33365014	     -5.86841220	     36.92649013	    -12.11461056	      1.30793616	     28.78392392	     28.78392392	      4.87074675	    -11.66503971	     10.14331918	     -9.37218854	      8.00872624	      5.26880863	     34.37898060	    -16.73105482	     -9.89529540	     68.99926379	     45.28023298	      0.00000000	      0.00000000	     -3.39674776	     -5.62901513	      3.94953840	     21.47466805	     45.37087087	      0.00000000	      0.00000000
     55.87335714	     -3.92919794	     -7.45252129	      4.64653786	      1.10672201	      0.92615216	      0.52977762	      0.18676547	      7.87521296	    -19.27692589	      6.06135865	      6.06135865	     12.30271115	      8.81339032	     -5.89007689	     36.61219422	    -11.90447613	      0.74998949	     25.45976684	     25.45976684	      5.19898003	     -9.81148373	     10.63395701	     -9.26365172	      8.12137313	      4.99410557	     36.36880055	    -16.41543230	     -9.73747935	     71.60879955	     45.19769782	      0.00000000	      0.00000000	     -5.02886375	     -5.62017224	      4.10519839	     21.02675695	     45.30546243	      0.00000000	      0.00000000
     55.88471429	     -4.11704284	     -7.64138483	      4.66204589	      1.10623492	      0.92474231	      0.52904940	     -0.45162683	      8.11204316	    -19.51621137	      5.62695850	      5.62695850	     12.77494716	      9.66959359	     -5.52709088	     36.50616610	    -11.83361053	      0.03892993	     22.88328127	     22.88328127	      5.87212498	     -7.72930366	     11.46154906	     -9.17981477	      8.34315601	      5.21320476	     37.44737947	    -16.85290742	     -9.31771404	     76.29227629	     45.04763407	      0.00000000	      0.00000000	     -6.75873032	     -5.73468461	      4.71524765	     21.72209684	     45.13072022	      0.00000000	      0.00000000
     55.89607143	     -4.30569922	     -7.67997782	      4.63837840	      1.10584020	      0.92342127	      0.52814349	     -1.01828523	      8.16332892	    -19.41315995	      5.35956302	      5.35956302	     13.19537568	      9.89939143	     -5.48195544	     36.23609148	    -11.55843499	     -0.66930022	     20.52766914	     20.52766914	      6.14375165	     -6.29709519	     11.99261043	     -8.98482122	      8.38626229	      5.05634410	     39.32008133	    -16.52610748	     -9.29276490	     78.55306034	     44.98581581	      0.00000000	      0.00000000	     -8.25290874	     -5.70132017	      4.99697821	     21.38034152	     45.04482771	      0.00000000	      0.00000000
     55.90742857	     -4.49867403	     -7.72103381	      4.58941813	      1.10562043	      0.92205269	      0.52712560	     -1.56440135	      8.19404761	    -19.32379476	      5.15373067	      5.15373067	     13.63920305	     10.15250194	     -5.38498160	     36.02577380	    -11.31154492	     -1.50721478	     18.77643011	     18.77643011	      6.39035318	     -5.03394403	     12.40704583	     -8.78554543	      8.43350351	      4.90563356	     40.98012578	    -16.21329029	     -9.14258911	     81.09290175	     44.91053269	      0.00000000	      0.00000000	     -9.78257208	     -5.69074148	      5.22849077	     21.28257609	     44.96400556	      0.00000000	      0.00000000
     55.91878571	     -4.73401860	     -7.83239680	      4.54534703	      1.10550968	      0.92049804	      0.52595637	     -2.01436280	      8.26019907	    -19.35477731	      5.06803125	      5.06803125	     14.28254447	     10.57644903	     -4.78308159	     36.07478520	    -11.14948663	     -2.39333479	     17.87618121	     17.87618121	      6.69919635	     -3.91244932	     12.83104722	     -8.58309033	      8.57906578	      5.14160509	     42.03477024	    -16.49455787	     -8.92036362	     85.05192686	     44.80229427	      0.00000000	      0.00000000	    -11.42665686	     -5.82597285	      5.94118414	     22.32205834	     44.77559169	      0.00000000	      0.00000000
     55.93014286	     -4.93535749	     -7.78090838	      4.45099991	      1.10551518	      0.91908744	      0.52458109	     -2.43213797	      8.10800373	    -19.18212042	      5.14643401	      5.14643401	     14.80758322	     10.62477645	     -4.70462847	     35.87707444	    -10.79197410	     -3.10299111	     17.13383633	     17.13383633	      6.59517348	     -3.57585843	     12.92949341	     -8.34323918	      8.53042456	      4.96884508	     43.63636881	    -16.07328837	     -8.83543066	     87.10865431	     44.74687950	      0.00000000	      0.00000000	    -12.75053258	     -5.76851660	      6.23747080	     22.11667806	     44.69406110	      0.00000000	      0.00000000
     55.94150000	     -5.16687902	     -7.75390425	      4.35340913	      1.10570660	      0.91754185	      0.52304341	     -2.76268006	      7.94313624	    -19.04319800	      5.36022272	      5.36022272	     15.40367230	     10.68449160	     -4.46056793	     35.82889080	    -10.47514470	     -3.70208244	     17.01803845	     17.01803845	      6.31258078	     -3.56942938	     12.64641715	     -8.05474893	      8.51028134	      4.77547683	     44.92768084	    -15.72124781	     -8.60075143	     89.80072195	     44.66889632	      0.00000000	      0.00000000	    -14.17631117	     -5.71509486	      6.57649257	     22.28798728	     44.59877097	      0.00000000	      0.00000000
     55.95285714	     -5.35177453	     -7.70922359	      4.23094033	      1.10604389	      0.91603683	      0.52138825	     -3.07689550	      7.72291691	    -18.89735870	      5.72838085	      5.72838085	     16.06563398	     10.66359958	     -4.23119724	     35.71169355	    -10.15869330	     -4.08883789	     17.23432243	     17.23432243	      5.79098734	     -3.94750401	     12.18639453	     -7.84159748	      8.50236441	      4.71796791	     46.14742655	    -15.46867522	     -8.38901678	     92.30292448	     44.59745140	      0.00000000	      0.00000000	    -15.41569127	     -5.68274787	      6.86670355	     22.51285479	     44.51779285	      0.00000000	      0.00000000
     55.96421429	     -5.55866495	     -7.61156446	      4.08174477	      1.10660744	      0.91453405	      0.51953279	     -3.33743138	      7.40344192	    -18.83513999	      6.22694784	      6.22694784	     17.02780028	     10.78052524	     -3.05168776	     35.46906116	     -9.76266869	     -4.23685853	     17.44177836	     17.44177836	      4.34031202	     -4.95833391	     10.08720714	     -7.60447036	      8.38744559	      5.17993911	     46.58757822	    -16.05842122	     -8.33555963	     95.90265662	     44.52768705	      0.00000000	      0.00000000	    -16.69103586	     -5.95217301	      7.99788268	     23.88808313	     44.29511204	      0.00000000	      0.00000000
